<?xml version="1.0" ?><svg id="svg8" version="1.1" viewBox="0 0 8.4666665 8.4666669" width="32" height="32"
    xmlns="http://www.w3.org/2000/svg" xmlns:cc="http://creativecommons.org/ns#"
    xmlns:dc="http://purl.org/dc/elements/1.1/" xmlns:inkscape="http://www.inkscape.org/namespaces/inkscape"
    xmlns:rdf="http://www.w3.org/1999/02/22-rdf-syntax-ns#"
    xmlns:sodipodi="http://sodipodi.sourceforge.net/DTD/sodipodi-0.dtd" xmlns:svg="http://www.w3.org/2000/svg">
    <defs id="defs2" />
    <g id="layer1" transform="matrix(1,0,0,1,0,-288.5)">
        <path
            d="M 12 1 C 5.9 1 1 5.9 1 12 C 1 18.1 5.9 23 12 23 C 14.7 23 17.1 22 19 20.4 L 29.3 30.7 C 30.2 31.7 31.7 30.2 30.7 29.3 L 20.4 19 C 22 17.1 23 14.7 23 12 C 23 5.9 18.1 1 12 1 z M 12 3 C 17 3 21 7 21 12 C 21 17 17 21 12 21 C 7 21 3 17 3 12 C 3 7 7 3 12 3 z"
            id="path935"
            style="fill: #ffffff; fill-rule: nonzero; stroke: none; stroke-width: 2; stroke-linecap: round; stroke-linejoin: round; stroke-dasharray: none; stroke-dashoffset: 0; font-family: [object Object]; font-size: medium; font-style: normal; font-weight: normal; color: #000000; font-variant: normal; font-stretch: normal; line-height: normal; font-variant-ligatures: normal; font-variant-position: normal; font-variant-caps: normal; font-variant-numeric: normal; font-variant-alternates: normal; font-feature-settings: normal; text-indent: 0; text-align: start; text-decoration: none; text-decoration-line: none; text-decoration-style: solid; text-decoration-color: #000000; letter-spacing: normal; word-spacing: normal; text-transform: none; writing-mode: lr-tb; direction: ltr; text-orientation: mixed; dominant-baseline: auto; baseline-shift: baseline; text-anchor: start; white-space: normal; shape-padding: 0; clip-rule: nonzero; display: inline; overflow: visible; visibility: visible; opacity: 1; isolation: auto; mix-blend-mode: normal; color-interpolation: sRGB; color-interpolation-filters: linearRGB; solid-color: #000000; solid-opacity: 1; vector-effect: none; fill-opacity: 1; stroke-miterlimit: 4; stroke-opacity: 1; paint-order: stroke fill markers; color-rendering: auto; image-rendering: auto; shape-rendering: auto; text-rendering: auto; enable-background: accumulate"
            transform="matrix(0.3,0,0,0.3,0,288.5)" />
    </g>
</svg>