<?xml version="1.0" encoding="iso-8859-1"?>
<!-- Generator: Adobe Illustrator 19.0.0, SVG Export Plug-In . SVG Version: 6.00 Build 0)  -->
<svg version="1.1" id="Layer_1" xmlns="http://www.w3.org/2000/svg" xmlns:xlink="http://www.w3.org/1999/xlink" x="0px"
        y="0px" viewBox="-100 -50 700 550.988" style="enable-background: new 0 0 511.988 511.988" xml:space="preserve">

        <style>
                .smoke {

                        -webkit-animation: wobble-hor-bottom 2s linear infinite forwards;
                        animation: wobble-hor-bottom 2s linear infinite forwards;
                }

                .pan {
                        -webkit-animation: wobble-hor-top 2s ease-in-out infinite both;
                        animation: wobble-hor-top 2s ease-in-out infinite both;
                }

                @-webkit-keyframes wobble-hor-top {

                        0%,
                        100% {
                                -webkit-transform: translateX(0%);
                                transform: translateX(0%);
                                -webkit-transform-origin: 50% 50%;
                                transform-origin: 50% 50%;
                        }

                        15% {
                                -webkit-transform: translateX(-30px) rotate(6deg);
                                transform: translateX(-30px) rotate(6deg);
                        }

                        30% {
                                -webkit-transform: translateX(15px) rotate(-6deg);
                                transform: translateX(15px) rotate(-6deg);
                        }

                        45% {
                                -webkit-transform: translateX(-15px) rotate(3.6deg);
                                transform: translateX(-15px) rotate(3.6deg);
                        }

                        60% {
                                -webkit-transform: translateX(9px) rotate(-2.4deg);
                                transform: translateX(9px) rotate(-2.4deg);
                        }

                        75% {
                                -webkit-transform: translateX(-6px) rotate(1.2deg);
                                transform: translateX(-6px) rotate(1.2deg);
                        }
                }

                @keyframes wobble-hor-top {

                        0%,
                        100% {
                                -webkit-transform: translateX(0%);
                                transform: translateX(0%);
                                -webkit-transform-origin: 50% 50%;
                                transform-origin: 50% 50%;
                        }

                        15% {
                                -webkit-transform: translateX(-30px) rotate(6deg);
                                transform: translateX(-30px) rotate(6deg);
                        }

                        30% {
                                -webkit-transform: translateX(15px) rotate(-6deg);
                                transform: translateX(15px) rotate(-6deg);
                        }

                        45% {
                                -webkit-transform: translateX(-15px) rotate(3.6deg);
                                transform: translateX(-15px) rotate(3.6deg);
                        }

                        60% {
                                -webkit-transform: translateX(9px) rotate(-2.4deg);
                                transform: translateX(9px) rotate(-2.4deg);
                        }

                        75% {
                                -webkit-transform: translateX(-6px) rotate(1.2deg);
                                transform: translateX(-6px) rotate(1.2deg);
                        }
                }


                @-webkit-keyframes wobble-hor-bottom {

                        0%,
                        100% {
                                -webkit-transform: translateX(0%);
                                transform: translateX(0%);
                                -webkit-transform-origin: 50% 50%;
                                transform-origin: 50% 50%;
                        }

                        15% {
                                -webkit-transform: translateX(-10px) rotate(-6deg);
                                transform: translateX(-10px) rotate(-6deg);
                        }

                        30% {
                                -webkit-transform: translateX(10px) rotate(6deg);
                                transform: translateX(10px) rotate(6deg);
                        }

                        45% {
                                -webkit-transform: translateX(-15px) rotate(-3.6deg);
                                transform: translateX(-15px) rotate(-3.6deg);
                        }

                        60% {
                                -webkit-transform: translateX(9px) rotate(2.4deg);
                                transform: translateX(9px) rotate(2.4deg);
                        }

                        75% {
                                -webkit-transform: translateX(-6px) rotate(-1.2deg);
                                transform: translateX(-6px) rotate(-1.2deg);
                        }
                }

                @keyframes wobble-hor-bottom {

                        0%,
                        100% {
                                -webkit-transform: translateX(0%);
                                transform: translateX(0%);
                                -webkit-transform-origin: 50% 50%;
                                transform-origin: 50% 50%;
                        }

                        15% {
                                -webkit-transform: translateX(-30px) rotate(-6deg);
                                transform: translateX(-30px) rotate(-6deg);
                        }

                        30% {
                                -webkit-transform: translateX(15px) rotate(6deg);
                                transform: translateX(15px) rotate(6deg);
                        }

                        45% {
                                -webkit-transform: translateX(-15px) rotate(-3.6deg);
                                transform: translateX(-15px) rotate(-3.6deg);
                        }

                        60% {
                                -webkit-transform: translateX(9px) rotate(2.4deg);
                                transform: translateX(9px) rotate(2.4deg);
                        }

                        75% {
                                -webkit-transform: translateX(-6px) rotate(-1.2deg);
                                transform: translateX(-6px) rotate(-1.2deg);
                        }
                }
        </style>
        <path class="smoke" style="fill: #e6e9ed"
                d="M 35.6 97.6 c 0 0 -2.3 -3.1 -3.4 -7 c -1.3 -4.5 -0.5 -7.8 2.7 -11 c 8.7 -8.7 11.5 -20 8.1 -31.8 c -2.3 -8 -6.8 -13.6 -7.4 -14.3 l 0 0 c 0 0 0 0 0 0 l 0 0 c -2 -2.4 -4.9 -3.9 -8.2 -3.9 c -5.9 0 -10.7 4.8 -10.7 10.7 c 0 2.6 0.9 5 2.5 6.8 l 0 0 c 0 0 2.3 2.9 3.4 6.7 c 1.3 4.4 0.5 7.6 -2.7 10.8 c -8.6 8.7 -11.5 20 -8.1 32 c 2.3 8.1 6.8 13.8 7.3 14.5 h 0 c 2 2.4 4.9 4 8.3 4 c 5.9 0 10.7 -4.8 10.7 -10.7 C 38 101.8 37.1 99.5 35.6 97.6 L 35.6 97.6 z" />

        <g class="pan">
                <path style="fill: #434a54"
                        d="M 63 205.8 c 0 5.9 -4.8 10.7 -10.7 10.7 s -10.7 -4.8 -10.7 -10.7 s 4.8 -10.7 10.7 -10.7 S 63 199.9 63 205.8 z" />

                <rect x="105.7" y="149.3" style="fill: #434a54" width="85.3" height="70" />
                <path style="fill: #656d78"
                        d="M 479 245.3 L 479 245.3 H 266.3 v 64 h 212.7 c 0 0 0 0 0 0 c 17.7 0 32 -14.3 32 -32 S 496.7 245.3 479 245.3 z" />
                <rect x="209.8" y="245.3" style="fill: #ccd1d9" width="119.8" height="85.3" />
                <g>
                        <path style="fill: #434a54"
                                d="M 361.6 256 c 5.9 0 10.7 -4.8 10.7 -10.7 h -21.3 C 351 251.2 355.8 256 361.6 256 z" />
                        <path style="fill: #434a54"
                                d="M 404.3 256 c 5.9 0 10.7 -4.8 10.7 -10.7 h -21.3 C 393.6 251.2 398.4 256 404.3 256 z" />
                        <path style="fill: #434a54"
                                d="M 447 256 c 5.9 0 10.7 -4.8 10.7 -10.7 h -21.3 C 436.3 251.2 441.1 256 447 256 z" />
                </g>
                <path style="fill: #e6e9ed"
                        d="M 297.6 394.7 c 0 23.6 -19.1 42.7 -42.7 42.7 H 41.7 C 18.1 437.3 -1 418.2 -1 394.7 V 245.3 h 298.6 V 394.7 z" />

                <path style="fill: #656d78"
                        d="M 191 149.3 h -85.3 c -5.9 0 -10.7 4.8 -10.7 10.7 c 0 5.9 4.8 10.7 10.7 10.7 h 85.3 c 5.9 0 10.7 -4.8 10.7 -10.7 C 201.7 154.1 196.9 149.3 191 149.3 z" />
                <path style="fill: #a0d468"
                        d="M 297.6 245.3 c 0 0 -21.3 -53.3 -149.3 -53.3 C 20.3 192 -1 245.3 -1 245.3 l 0 0 H 297.6 L 297.6 245.3 z" />
                <g style="opacity: 0.2">
                        <path style="fill: #ffffff"
                                d="M 20.3 394.7 V 245.3 c 0 0 20.1 -50.3 138.7 -53.2 c -3.5 -0.1 -7 -0.1 -10.7 -0.1 C 20.3 192 -1 245.3 -1 245.3 v 149.3 c 0 23.6 19.1 42.7 42.7 42.7 h 21.3 C 39.4 437.3 20.3 418.2 20.3 394.7 z" />
                </g>
        </g>
        <path style="fill: #e6e9ed" class="smoke"
                d="M 106.6 63.6 c 0 0 -2.3 -3.1 -3.4 -7 c -1.3 -4.5 -0.5 -7.8 2.7 -11 c 8.7 -8.7 11.5 -20 8.1 -31.8 c -2.3 -8 -6.8 -13.6 -7.4 -14.3 l 0 0 c 0 0 0 0 0 0 l 0 0 c -2 -2.4 -4.9 -3.9 -8.2 -3.9 c -5.9 0 -10.7 4.8 -10.7 10.7 c 0 2.6 0.9 5 2.5 6.8 l 0 0 c 0 0 2.3 2.9 3.4 6.7 c 1.3 4.4 0.5 7.6 -2.7 10.8 c -8.6 8.7 -11.5 20 -8.1 32 c 2.3 8.1 6.8 13.8 7.3 14.5 h 0 c 2 2.4 4.9 4 8.3 4 c 5.9 0 10.7 -4.8 10.7 -10.7 C 109 67.8 108.1 65.5 106.6 63.6 L 106.6 63.6 z" />
        <path style="fill: #e6e9ed" class="smoke"
                d="M 186.6 69.6 c 0 0 -2.3 -3.1 -3.4 -7 c -1.3 -4.5 -0.5 -7.8 2.7 -11 c 8.7 -8.7 11.5 -20 8.1 -31.8 c -2.3 -8 -6.8 -13.6 -7.4 -14.3 l 0 0 c 0 0 0 0 0 0 l 0 0 c -2 -2.4 -4.9 -3.9 -8.2 -3.9 c -5.9 0 -10.7 4.8 -10.7 10.7 c 0 2.6 0.9 5 2.5 6.8 l 0 0 c 0 0 2.3 2.9 3.4 6.7 c 1.3 4.4 0.5 7.6 -2.7 10.8 c -8.6 8.7 -11.5 20 -8.1 32 c 2.3 8.1 6.8 13.8 7.3 14.5 h 0 c 2 2.4 4.9 4 8.3 4 c 5.9 0 10.7 -4.8 10.7 -10.7 C 189 73.8 188.1 71.5 186.6 69.6 L 186.6 69.6 z" />
        <path style="fill: #e6e9ed" class="smoke"
                d="M 276.6 107.6 c 0 0 -2.3 -3.1 -3.4 -7 c -1.3 -4.5 -0.5 -7.8 2.7 -11 c 8.7 -8.7 11.5 -20 8.1 -31.8 c -2.3 -8 -6.8 -13.6 -7.4 -14.3 l 0 0 c 0 0 0 0 0 0 l 0 0 c -2 -2.4 -4.9 -3.9 -8.2 -3.9 c -5.9 0 -10.7 4.8 -10.7 10.7 c 0 2.6 0.9 5 2.5 6.8 l 0 0 c 0 0 2.3 2.9 3.4 6.7 c 1.3 4.4 0.5 7.6 -2.7 10.8 c -8.6 8.7 -11.5 20 -8.1 32 c 2.3 8.1 6.8 13.8 7.3 14.5 h 0 c 2 2.4 4.9 4 8.3 4 c 5.9 0 10.7 -4.8 10.7 -10.7 C 279 111.8 278.1 109.5 276.6 107.6 L 276.6 107.6 z" />

</svg>